# Blender v2.79 (sub 0) OBJ File: 'Door.blend'
# www.blender.org
mtllib Door.mtl
o Cube
v 2.318480 -1.932067 -1.000000
v 2.318480 -1.932067 -0.000000
v -2.318480 -1.932067 -0.000000
v -2.318479 -1.932067 -1.000000
v 2.318481 1.932067 -1.000000
v 2.318478 1.932067 0.000001
v -2.318481 1.932067 -0.000000
v -2.318480 1.932067 -1.000000
v 3.000000 -2.500000 -1.000000
v -2.999999 -2.500000 -1.000000
v 3.000001 2.500000 -0.999999
v 3.000000 -2.500000 0.000000
v -3.000000 -2.500000 -0.000000
v 2.999998 2.500000 0.000001
v -3.000001 2.500000 -0.000000
v -3.000000 2.500000 -1.000000
v 2.318480 -1.932067 -0.000000
v 2.318478 1.932067 0.000001
v -2.318481 1.932067 -0.000000
v -2.318480 -1.932067 -0.000000
v 2.318481 1.932067 -1.000000
v 2.318480 -1.932067 -1.000000
v -2.318479 -1.932067 -1.000000
v -2.318480 1.932067 -1.000000
v 2.318480 -1.932067 -0.209702
v 2.318478 1.932067 -0.209701
v -2.318481 1.932067 -0.209702
v -2.318480 -1.932067 -0.209702
v 2.318481 1.932066 -0.790298
v 2.318480 -1.932067 -0.790298
v -2.318479 -1.932067 -0.790298
v -2.318480 1.932066 -0.790298
vn 0.0000 -1.0000 0.0000
vn 0.0000 1.0000 -0.0000
vn 1.0000 0.0000 0.0000
vn -1.0000 -0.0000 -0.0000
vn -0.0000 -0.0000 1.0000
vn 0.0000 0.0000 -1.0000
usemtl Material
s off
f 9//1 12//1 13//1 10//1
f 11//2 16//2 15//2 14//2
f 9//3 11//3 14//3 12//3
f 18//4 26//4 25//4 17//4
f 13//4 15//4 16//4 10//4
f 25//5 26//5 27//5 28//5
f 4//6 1//6 9//6 10//6
f 1//6 5//6 11//6 9//6
f 2//5 3//5 13//5 12//5
f 6//5 2//5 12//5 14//5
f 3//5 7//5 15//5 13//5
f 8//6 4//6 10//6 16//6
f 5//6 8//6 16//6 11//6
f 7//5 6//5 14//5 15//5
f 6//5 18//5 17//5 2//5
f 7//5 19//5 18//5 6//5
f 3//5 20//5 19//5 7//5
f 2//5 17//5 20//5 3//5
f 1//5 22//5 21//5 5//5
f 4//5 23//5 22//5 1//5
f 8//5 24//5 23//5 4//5
f 5//5 21//5 24//5 8//5
f 19//1 27//1 26//1 18//1
f 20//3 28//3 27//3 19//3
f 17//2 25//2 28//2 20//2
f 29//6 30//6 31//6 32//6
f 22//4 30//4 29//4 21//4
f 23//2 31//2 30//2 22//2
f 24//3 32//3 31//3 23//3
f 21//1 29//1 32//1 24//1
