# Blender v2.79 (sub 0) OBJ File: 'Gun.blend'
# www.blender.org
mtllib Gun.mtl
o Cube
v 4.000000 -1.000000 -1.000000
v 4.000000 -1.000000 1.000000
v -4.000000 -1.000000 1.000000
v -3.999998 -1.000000 -1.000000
v 4.000000 1.000000 0.100000
v 3.427257 1.000000 0.100000
v 4.000001 1.000000 -0.100000
v 3.427258 1.000000 -0.100000
v 4.000001 1.000000 -0.100000
v 4.000000 1.000000 0.100000
v 3.427258 1.000000 -0.100000
v 3.427257 1.000000 0.100000
v 4.000001 1.639158 -0.100000
v 4.000001 1.660587 -0.078571
v 4.000000 1.660587 0.078571
v 4.000000 1.639158 0.100000
v 3.427258 1.660587 -0.078571
v 3.427258 1.639158 -0.100000
v 3.427257 1.639158 0.100000
v 3.427257 1.660587 0.078571
v 4.000002 0.936279 -1.000000
v 4.000002 1.000000 -0.936278
v 3.999998 1.000000 0.936280
v 3.999998 0.936279 1.000001
v -4.000001 0.936279 1.000000
v -4.000001 1.000000 0.936279
v -4.000000 1.000000 -0.936279
v -4.000000 0.936279 -1.000000
v 3.427258 1.000000 -0.936279
v 3.427258 0.936279 -1.000000
v 3.427255 0.936279 1.000000
v 3.427255 1.000000 0.936279
vn 0.0000 -1.0000 0.0000
vn -0.0000 -0.0000 1.0000
vn 0.0000 1.0000 0.0000
vn -1.0000 -0.0000 -0.0000
vn 1.0000 0.0000 0.0000
vn 0.0000 0.0000 -1.0000
vn -0.0000 0.7071 0.7071
vn 0.0000 0.7071 -0.7071
usemtl Material.004
s off
f 1//1 2//1 3//1 4//1
f 2//2 24//2 31//2 25//2 3//2
f 5//3 6//3 32//3 23//3
f 29//3 27//3 26//3 32//3 6//3 8//3
f 22//3 29//3 8//3 7//3
f 3//4 25//4 26//4 27//4 28//4 4//4
f 6//2 5//2 10//2 12//2
f 1//5 21//5 22//5 7//5 5//5 23//5 24//5 2//5
f 12//2 10//2 16//2 19//2
f 5//2 7//2 9//2 10//2
f 7//2 8//2 11//2 9//2
f 8//2 6//2 12//2 11//2
f 9//6 11//6 18//6 13//6
f 10//5 9//5 13//5 14//5 15//5 16//5
f 11//4 12//4 19//4 20//4 17//4 18//4
f 19//7 16//7 15//7 20//7
f 17//8 14//8 13//8 18//8
f 14//3 17//3 20//3 15//3
f 30//8 28//8 27//8 29//8
f 32//7 26//7 25//7 31//7
f 21//8 30//8 29//8 22//8
f 23//7 32//7 31//7 24//7
f 21//6 1//6 4//6 28//6 30//6
