# Blender v2.79 (sub 0) OBJ File: 'Pistol.blend'
# www.blender.org
mtllib Pistol.mtl
o Cylinder
v -4.000000 0.000000 -1.000000
v 4.000000 -0.000000 -1.000000
v -4.000000 -0.195090 -0.980785
v 4.000000 -0.195091 -0.980785
v -4.000000 -0.382683 -0.923880
v 4.000000 -0.382684 -0.923880
v -4.000000 -0.555570 -0.831470
v 4.000000 -0.555570 -0.831470
v -4.000000 -0.707107 -0.707107
v 4.000000 -0.707107 -0.707107
v -4.000000 -0.831469 -0.555570
v 4.000000 -0.831470 -0.555570
v -4.000000 -0.923879 -0.382683
v 4.000000 -0.923880 -0.382683
v -4.000000 -0.980785 -0.195090
v 4.000000 -0.980785 -0.195090
v -4.000000 -1.000000 -0.000000
v 4.000000 -1.000000 -0.000000
v -4.000000 -0.980785 0.195090
v 4.000000 -0.980785 0.195090
v -4.000000 -0.923879 0.382683
v 4.000000 -0.923880 0.382683
v -4.000000 -0.831469 0.555570
v 4.000000 -0.831470 0.555570
v -4.000000 -0.707107 0.707107
v 4.000000 -0.707107 0.707107
v -4.000000 -0.555570 0.831470
v 4.000000 -0.555570 0.831470
v -4.000000 -0.382683 0.923880
v 4.000000 -0.382683 0.923880
v -4.000000 -0.195090 0.980785
v 4.000000 -0.195090 0.980785
v -4.000000 0.000001 1.000000
v 4.000000 0.000000 1.000000
v -4.000000 0.195091 0.980785
v 4.000000 0.195091 0.980785
v -4.000000 0.382684 0.923879
v 4.000000 0.382684 0.923879
v -4.000000 0.555571 0.831469
v 4.000000 0.555571 0.831469
v -4.000000 0.707107 0.707106
v 4.000000 0.707107 0.707106
v -4.000000 0.831470 0.555570
v 4.000000 0.831470 0.555570
v -4.000000 0.923880 0.382683
v 4.000000 0.923880 0.382683
v -4.000000 0.980786 0.195089
v 4.000000 0.980785 0.195089
v -4.000000 1.000000 -0.000001
v 4.000000 1.000000 -0.000001
v -4.000000 0.980785 -0.195091
v 4.000000 0.980785 -0.195091
v -4.000000 0.923879 -0.382684
v 4.000000 0.923879 -0.382684
v -4.000000 0.831469 -0.555571
v 4.000000 0.831469 -0.555571
v -4.000000 0.707106 -0.707108
v 4.000000 0.707106 -0.707108
v -4.000000 0.555569 -0.831470
v 4.000000 0.555569 -0.831470
v -4.000000 0.382682 -0.923880
v 4.000000 0.382682 -0.923880
v -4.000000 0.195089 -0.980786
v 4.000000 0.195089 -0.980786
v -4.000000 -1.000000 -0.000000
v 4.000000 -1.000000 -0.000000
v 4.000000 -0.980785 0.195090
v -4.000000 -0.980785 0.195090
v -4.000000 0.980786 0.195089
v 4.000000 0.980785 0.195089
v 4.000000 1.000000 -0.000001
v -4.000000 1.000000 -0.000001
v 4.000000 0.980785 -0.195091
v -4.000000 0.980785 -0.195091
v 0.000000 0.980785 0.195089
v 3.600000 1.000000 -0.000001
v 3.600000 0.980785 0.195089
v 3.600000 0.980785 -0.195091
v 4.000000 1.544456 -0.000002
v 4.000000 1.525241 0.195089
v 4.000000 1.525241 -0.195092
v 3.600001 1.544456 -0.000002
v 3.600001 1.525242 0.195089
v 3.600001 1.525241 -0.195092
vn 0.0000 -0.0980 -0.9952
vn -0.0000 -0.2903 -0.9569
vn -0.0000 -0.4714 -0.8819
vn -0.0000 -0.6344 -0.7730
vn -0.0000 -0.7730 -0.6344
vn -0.0000 -0.8819 -0.4714
vn -0.0000 -0.9569 -0.2903
vn -0.0000 -0.9952 -0.0980
vn -0.0000 -0.9952 0.0980
vn -0.0000 -0.9569 0.2903
vn -0.0000 -0.8819 0.4714
vn -0.0000 -0.7730 0.6344
vn -0.0000 -0.6344 0.7730
vn -0.0000 -0.4714 0.8819
vn -0.0000 -0.2903 0.9569
vn 0.0000 -0.0980 0.9952
vn -0.0000 0.0980 0.9952
vn 0.0000 0.2903 0.9569
vn 0.0000 0.4714 0.8819
vn 0.0000 0.6344 0.7730
vn 0.0000 0.7730 0.6344
vn 0.0000 0.8819 0.4714
vn 0.0000 0.9569 0.2903
vn 0.0000 0.0000 1.0000
vn -1.0000 0.0000 -0.0000
vn 0.0000 0.9569 -0.2903
vn 0.0000 0.8819 -0.4714
vn 0.0000 0.7730 -0.6344
vn 0.0000 0.6344 -0.7730
vn 0.0000 0.4714 -0.8819
vn 1.0000 0.0000 0.0000
vn 0.0000 0.2903 -0.9569
vn -0.0000 0.0980 -0.9952
vn 0.0000 0.9952 -0.0980
vn 0.0000 0.9952 0.0980
vn -0.0000 -0.0000 -1.0000
usemtl Material
s off
f 1//1 2//1 4//1 3//1
f 3//2 4//2 6//2 5//2
f 5//3 6//3 8//3 7//3
f 7//4 8//4 10//4 9//4
f 9//5 10//5 12//5 11//5
f 11//6 12//6 14//6 13//6
f 13//7 14//7 16//7 15//7
f 15//8 16//8 18//8 17//8
f 65//9 66//9 67//9 68//9
f 19//10 20//10 22//10 21//10
f 21//11 22//11 24//11 23//11
f 23//12 24//12 26//12 25//12
f 25//13 26//13 28//13 27//13
f 27//14 28//14 30//14 29//14
f 29//15 30//15 32//15 31//15
f 31//16 32//16 34//16 33//16
f 33//17 34//17 36//17 35//17
f 35//18 36//18 38//18 37//18
f 37//19 38//19 40//19 39//19
f 39//20 40//20 42//20 41//20
f 41//21 42//21 44//21 43//21
f 43//22 44//22 46//22 45//22
f 45//23 46//23 48//23 75//23 47//23
f 77//24 70//24 80//24 83//24
f 78//25 76//25 82//25 84//25
f 51//26 52//26 54//26 53//26
f 53//27 54//27 56//27 55//27
f 55//28 56//28 58//28 57//28
f 57//29 58//29 60//29 59//29
f 59//30 60//30 62//30 61//30
f 4//31 2//31 64//31 62//31 60//31 58//31 56//31 54//31 52//31 50//31 48//31 46//31 44//31 42//31 40//31 38//31 36//31 34//31 32//31 30//31 28//31 26//31 24//31 22//31 20//31 18//31 16//31 14//31 12//31 10//31 8//31 6//31
f 61//32 62//32 64//32 63//32
f 63//33 64//33 2//33 1//33
f 1//25 3//25 5//25 7//25 9//25 11//25 13//25 15//25 17//25 19//25 21//25 23//25 25//25 27//25 29//25 31//25 33//25 35//25 37//25 39//25 41//25 43//25 45//25 47//25 49//25 51//25 53//25 55//25 57//25 59//25 61//25 63//25
f 72//34 76//34 78//34 74//34
f 69//35 77//35 76//35 72//35
f 83//35 80//35 79//35 82//35
f 82//34 79//34 81//34 84//34
f 70//31 71//31 79//31 80//31
f 76//25 77//25 83//25 82//25
f 73//36 78//36 84//36 81//36
f 71//31 73//31 81//31 79//31
